<svg xmlns="http://www.w3.org/2000/svg" xmlns:xlink="http://www.w3.org/1999/xlink" width="238" height="406" viewBox="0 0 238 406">
  <defs>
    <pattern id="pattern" preserveAspectRatio="xMidYMid slice" width="100%" height="100%" viewBox="0 0 512 512">
      <image width="512" height="512" xlink:href="Grupo%2083397-image.png"/>
    </pattern>
  </defs>
  <g id="Grupo_83397" data-name="Grupo 83397" transform="translate(6023 5971)">
    <path id="Trazado_116662" data-name="Trazado 116662" d="M10,0H228a10,10,0,0,1,10,10V396a10,10,0,0,1-10,10H10A10,10,0,0,1,0,396V10A10,10,0,0,1,10,0Z" transform="translate(-6023 -5971)" fill="#8979f3"/>
    <path id="Trazado_116014" data-name="Trazado 116014" d="M209.834,253.524c-13.443-13.652-31.578-22.767-34.417-35.216-5.391-23.636-14.513-50.174-60.541-51.833s-62.614,14.513-73.948,48.792-23.083,20.871-25.985,56.117,17.495,35.79,35.661,45.2c41.077,21.273,125.613,39.289,159.23,6.157A45.038,45.038,0,0,0,220.2,307.047C230.21,281.728,221.915,265.794,209.834,253.524Z" transform="translate(-6026.665 -6021.24)" fill="#05dbf3"/>
    <path id="Trazado_116015" data-name="Trazado 116015" d="M36.445,173.673h-2.7v-2.7a1.349,1.349,0,0,0-2.7,0v2.7h-2.7a1.349,1.349,0,1,0,0,2.7h2.7v2.7a1.349,1.349,0,0,0,2.7,0v-2.7h2.7a1.349,1.349,0,1,0,0-2.7" transform="translate(-6036.197 -6028.079)" fill="#fff"/>
    <path id="Trazado_116016" data-name="Trazado 116016" d="M205.945,180.173h-2.7v-2.7a1.349,1.349,0,1,0-2.7,0v2.7h-2.7a1.349,1.349,0,1,0,0,2.7h2.7v2.7a1.349,1.349,0,0,0,2.7,0v-2.7h2.7a1.349,1.349,0,0,0,0-2.7" transform="translate(-6036.223 -6045.373)" fill="#fff"/>
    <path id="Trazado_116017" data-name="Trazado 116017" d="M143.445,376.173h-2.7v-2.7a1.349,1.349,0,0,0-2.7,0v2.7h-2.7a1.349,1.349,0,1,0,0,2.7h2.7v2.7a1.349,1.349,0,0,0,2.7,0v-2.7h2.7a1.349,1.349,0,1,0,0-2.7" transform="translate(-6046.945 -6048.42)" fill="#fff"/>
    <path id="Trazado_116018" data-name="Trazado 116018" d="M168.548,134a4.048,4.048,0,1,0,4.048,4.048A4.048,4.048,0,0,0,168.548,134" transform="translate(-6030.009 -6036.5)" fill="#efd860"/>
    <path id="Trazado_116019" data-name="Trazado 116019" d="M233,300a4.5,4.5,0,1,0,4.5,4.5A4.5,4.5,0,0,0,233,300" transform="translate(-6036.438 -6053.175)" fill="#efd860"/>
    <path id="Trazado_116663" data-name="Trazado 116663" d="M-75.467-5.432h-4.852v3.059h5.73V0H-83.4V-12.8h8.833v2.382h-5.748v2.7h4.852ZM-72.778,0V-7.453h-1.38V-9.51h1.38v-.316a3.631,3.631,0,0,1,1.248-2.909,4.987,4.987,0,0,1,3.243-.949,11.509,11.509,0,0,1,3.094.51l-.4,2.338-.492-.132a7.832,7.832,0,0,0-2.021-.255q-1.7,0-1.7,1.547v.167h1.863v2.057h-1.863V0Zm8.947,0H-66.81V-9.51h2.979ZM-58-2.109a1.317,1.317,0,0,0,.967-.338,1.241,1.241,0,0,0,.334-.945h2.777A3.288,3.288,0,0,1-55.046-.826a4.168,4.168,0,0,1-2.887,1,4.22,4.22,0,0,1-3.27-1.3,5.125,5.125,0,0,1-1.2-3.6v-.123A5.792,5.792,0,0,1-61.866-7.4a3.872,3.872,0,0,1,1.534-1.7,4.573,4.573,0,0,1,2.373-.593,4.116,4.116,0,0,1,2.944,1.028,3.647,3.647,0,0,1,1.09,2.786H-56.7A1.626,1.626,0,0,0-57.063-7a1.244,1.244,0,0,0-.967-.4q-1.151,0-1.345,1.468a10.357,10.357,0,0,0-.062,1.283,4.068,4.068,0,0,0,.343,1.986A1.187,1.187,0,0,0-58-2.109ZM-47.316,0A3.344,3.344,0,0,1-47.6-.853,2.754,2.754,0,0,1-49.882.176a3.374,3.374,0,0,1-2.285-.813,2.588,2.588,0,0,1-.94-2.043,2.66,2.66,0,0,1,1.143-2.338,5.821,5.821,0,0,1,3.322-.791h.914v-.5q0-1.316-1.134-1.316a.927.927,0,0,0-1.055,1.042h-2.962a2.655,2.655,0,0,1,1.173-2.239,4.931,4.931,0,0,1,2.993-.86,4.323,4.323,0,0,1,2.874.888,3.086,3.086,0,0,1,1.081,2.435v4.21a4.311,4.311,0,0,0,.4,2V0ZM-49.17-1.934a1.652,1.652,0,0,0,.918-.237,1.487,1.487,0,0,0,.523-.536V-4.228h-.861q-1.547,0-1.547,1.389a.848.848,0,0,0,.272.655A.986.986,0,0,0-49.17-1.934ZM-39.1-2.109a1.317,1.317,0,0,0,.967-.338,1.241,1.241,0,0,0,.334-.945h2.777A3.288,3.288,0,0,1-36.141-.826a4.168,4.168,0,0,1-2.887,1,4.22,4.22,0,0,1-3.27-1.3,5.125,5.125,0,0,1-1.2-3.6v-.123A5.792,5.792,0,0,1-42.961-7.4a3.872,3.872,0,0,1,1.534-1.7,4.573,4.573,0,0,1,2.373-.593A4.116,4.116,0,0,1-36.11-8.657a3.647,3.647,0,0,1,1.09,2.786H-37.8A1.626,1.626,0,0,0-38.158-7a1.244,1.244,0,0,0-.967-.4q-1.151,0-1.345,1.468a10.357,10.357,0,0,0-.062,1.283,4.068,4.068,0,0,0,.343,1.986A1.187,1.187,0,0,0-39.1-2.109ZM-30.643,0h-2.971V-9.51h2.971ZM-33.79-11.971a1.334,1.334,0,0,1,.457-1.043,1.718,1.718,0,0,1,1.187-.407,1.718,1.718,0,0,1,1.187.407,1.334,1.334,0,0,1,.457,1.043,1.334,1.334,0,0,1-.457,1.043,1.718,1.718,0,0,1-1.187.407,1.718,1.718,0,0,1-1.187-.407A1.334,1.334,0,0,1-33.79-11.971ZM-23.462,0a3.344,3.344,0,0,1-.281-.853A2.754,2.754,0,0,1-26.029.176a3.374,3.374,0,0,1-2.285-.813,2.588,2.588,0,0,1-.94-2.043,2.66,2.66,0,0,1,1.143-2.338A5.821,5.821,0,0,1-24.79-5.81h.914v-.5q0-1.316-1.134-1.316a.927.927,0,0,0-1.055,1.042h-2.962a2.655,2.655,0,0,1,1.173-2.239,4.931,4.931,0,0,1,2.993-.86,4.323,4.323,0,0,1,2.874.888A3.086,3.086,0,0,1-20.9-6.363v4.21a4.311,4.311,0,0,0,.4,2V0Zm-1.854-1.934a1.652,1.652,0,0,0,.918-.237,1.487,1.487,0,0,0,.523-.536V-4.228h-.861q-1.547,0-1.547,1.389a.848.848,0,0,0,.272.655A.986.986,0,0,0-25.317-1.934Zm10.16-2.892a5.809,5.809,0,0,1,.976-3.56,3.211,3.211,0,0,1,2.725-1.3,2.731,2.731,0,0,1,2.145,1V-13.5h2.971V0H-9l-.149-1.02a2.8,2.8,0,0,1-2.32,1.2,3.205,3.205,0,0,1-2.689-1.3A5.993,5.993,0,0,1-15.157-4.825Zm2.962.185q0,2.531,1.477,2.531a1.458,1.458,0,0,0,1.406-.826V-6.557A1.419,1.419,0,0,0-10.7-7.4q-1.371,0-1.485,2.215ZM-.057.176A4.889,4.889,0,0,1-3.6-1.129a4.507,4.507,0,0,1-1.354-3.4v-.246a5.84,5.84,0,0,1,.541-2.575A3.955,3.955,0,0,1-2.834-9.075,4.763,4.763,0,0,1-.374-9.686,4.117,4.117,0,0,1,2.791-8.442a4.887,4.887,0,0,1,1.16,3.467v1.151H-1.938a2.135,2.135,0,0,0,.694,1.257,2.066,2.066,0,0,0,1.389.457,2.662,2.662,0,0,0,2.2-.984L3.7-1.494A3.784,3.784,0,0,1,2.127-.277,5.3,5.3,0,0,1-.057.176ZM-.391-7.4q-1.3,0-1.547,1.723H1.05v-.229a1.467,1.467,0,0,0-.36-1.1A1.434,1.434,0,0,0-.391-7.4ZM12.749,0H9.778V-13.5h2.971Zm7.181,0a3.344,3.344,0,0,1-.281-.853A2.754,2.754,0,0,1,17.363.176a3.374,3.374,0,0,1-2.285-.813,2.588,2.588,0,0,1-.94-2.043A2.66,2.66,0,0,1,15.28-5.019,5.821,5.821,0,0,1,18.6-5.81h.914v-.5q0-1.316-1.134-1.316a.927.927,0,0,0-1.055,1.042H14.366a2.655,2.655,0,0,1,1.173-2.239,4.931,4.931,0,0,1,2.993-.86,4.323,4.323,0,0,1,2.874.888,3.086,3.086,0,0,1,1.081,2.435v4.21a4.311,4.311,0,0,0,.4,2V0ZM18.075-1.934a1.652,1.652,0,0,0,.918-.237,1.487,1.487,0,0,0,.523-.536V-4.228h-.861q-1.547,0-1.547,1.389a.848.848,0,0,0,.272.655A.986.986,0,0,0,18.075-1.934ZM37.437-4.685a5.735,5.735,0,0,1-1,3.538A3.2,3.2,0,0,1,33.746.176a2.742,2.742,0,0,1-2.153-.958V3.656H28.63V-9.51H31.4l.088.879a2.742,2.742,0,0,1,2.241-1.055,3.224,3.224,0,0,1,2.733,1.3,5.805,5.805,0,0,1,.976,3.564Zm-2.962-.185Q34.475-7.4,33-7.4a1.394,1.394,0,0,0-1.406.756V-2.9a1.439,1.439,0,0,0,1.424.791q1.415,0,1.459-2.443Zm10.02-1.96-.976-.07a1.752,1.752,0,0,0-1.793.879V0H38.764V-9.51h2.777l.1,1.222a2.294,2.294,0,0,1,2.083-1.4,2.888,2.888,0,0,1,.826.105Zm6.732,5.8a3.054,3.054,0,0,1-2.54,1.2,3,3,0,0,1-2.369-.91,3.826,3.826,0,0,1-.8-2.615V-9.51h2.962v6.179a1.065,1.065,0,0,0,1.187,1.222,1.548,1.548,0,0,0,1.45-.729V-9.51h2.979V0H51.315Zm9.088,1.2a4.889,4.889,0,0,1-3.542-1.305,4.507,4.507,0,0,1-1.354-3.4v-.246a5.84,5.84,0,0,1,.541-2.575,3.955,3.955,0,0,1,1.578-1.727A4.763,4.763,0,0,1,60-9.686a4.117,4.117,0,0,1,3.164,1.244,4.887,4.887,0,0,1,1.16,3.467v1.151H58.434a2.135,2.135,0,0,0,.694,1.257,2.066,2.066,0,0,0,1.389.457,2.662,2.662,0,0,0,2.2-.984l1.354,1.6A3.784,3.784,0,0,1,62.5-.277,5.3,5.3,0,0,1,60.315.176ZM59.981-7.4q-1.3,0-1.547,1.723h2.988v-.229a1.467,1.467,0,0,0-.36-1.1A1.434,1.434,0,0,0,59.981-7.4ZM74.342-4.676a5.8,5.8,0,0,1-.967,3.595A3.238,3.238,0,0,1,70.651.176,2.81,2.81,0,0,1,68.313-.976L68.19,0H65.536V-13.5H68.5v4.755a2.711,2.711,0,0,1,2.136-.94,3.239,3.239,0,0,1,2.742,1.274,5.826,5.826,0,0,1,.967,3.586Zm-2.971-.189a3.866,3.866,0,0,0-.365-1.952A1.229,1.229,0,0,0,69.886-7.4a1.418,1.418,0,0,0-1.389.763v3.773a1.426,1.426,0,0,0,1.406.755,1.258,1.258,0,0,0,1.327-1.018A7.309,7.309,0,0,0,71.372-4.865ZM81,0a3.344,3.344,0,0,1-.281-.853A2.754,2.754,0,0,1,78.438.176a3.374,3.374,0,0,1-2.285-.813,2.588,2.588,0,0,1-.94-2.043,2.66,2.66,0,0,1,1.143-2.338,5.821,5.821,0,0,1,3.322-.791h.914v-.5q0-1.316-1.134-1.316A.927.927,0,0,0,78.4-6.587H75.441a2.655,2.655,0,0,1,1.173-2.239,4.931,4.931,0,0,1,2.993-.86,4.323,4.323,0,0,1,2.874.888,3.086,3.086,0,0,1,1.081,2.435v4.21a4.311,4.311,0,0,0,.4,2V0ZM79.15-1.934a1.652,1.652,0,0,0,.918-.237,1.487,1.487,0,0,0,.523-.536V-4.228H79.73q-1.547,0-1.547,1.389a.848.848,0,0,0,.272.655A.986.986,0,0,0,79.15-1.934Z" transform="translate(-5904 -5634.3)" fill="#fff"/>
    <path id="pruebas" d="M0,0H196V196H0Z" transform="translate(-6002 -5881)" fill="url(#pattern)"/>
  </g>
</svg>
