<svg xmlns="http://www.w3.org/2000/svg" xmlns:xlink="http://www.w3.org/1999/xlink" width="192.798" height="249.5" viewBox="0 0 192.798 249.5">
  <defs>
    <clipPath id="clip-path">
      <path id="Trazado_115917" data-name="Trazado 115917" d="M118-59.5c52.467,0,72,102.033,72,154.5A95,95,0,0,1,0,95C0,79.994-6.3,23.323,0,10.5,15.366-20.8,80.539-59.5,118-59.5Z" transform="translate(285 2244)" fill="#8979f3"/>
    </clipPath>
  </defs>
  <g id="Grupo_83028" data-name="Grupo 83028" transform="translate(-282.202 -2184.5)">
    <circle id="Elipse_4768" data-name="Elipse 4768" cx="95" cy="95" r="95" transform="translate(285 2244)" fill="#8979f3"/>
    <g id="Enmascarar_grupo_90" data-name="Enmascarar grupo 90" clip-path="url(#clip-path)">
      <g id="Grupo_83027" data-name="Grupo 83027" transform="translate(14.289 1950.281)">
        <path id="Trazado_115834" data-name="Trazado 115834" d="M329.606,375.826s1.505,5.028-4.986,8.047-7.155,2.341-6.34,4.354,20.759,1,20.177-1.341-2.672-5.695-3.69-11.059S329.606,375.826,329.606,375.826Z" transform="translate(75.768 213.413)" fill="#2b2923"/>
        <g id="Grupo_83013" data-name="Grupo 83013" transform="translate(295.379 588.982)">
          <path id="Trazado_115835" data-name="Trazado 115835" d="M300.043,376.311a20.3,20.3,0,0,1-9.144,6.967c-6.4,2.613-10.53,2.026-10.057,3.772s25.34.868,25.131-1.161-1.672-4.933-1.865-9.578S300.043,376.311,300.043,376.311Z" transform="translate(-280.805 -374.247)" fill="#2b2923"/>
        </g>
        <path id="Trazado_115836" data-name="Trazado 115836" d="M315.2,305.186l59.584,9.769s-5.859,80.1-3.907,86.935,15.63,37.119,20.513,85.962l-10.887,1.674c-10.258-31.747-22.714-63.266-29.163-80.8-4.073-11.078-7.814-64.47-7.814-64.47l-9.769-1.952s-23.444,53.236-26.861,63,1.465,46.4-7.327,84.493H289.154c-1.465-41.515-5.211-68.377-3.256-88.89S308.365,335.954,315.2,305.186Z" transform="translate(22.042 101.121)" fill="#2e2e4c"/>
        <path id="Trazado_115837" data-name="Trazado 115837" d="M351.333,390c6.449,17.532,18.9,49.051,29.163,80.8l10.887-1.674C386.5,420.277,372.824,390,370.87,383.158a41.065,41.065,0,0,1-.394-7.946S368.59,394.556,359.8,393.9c-12.866-.952-12.535-68.377-12.535-68.377l4.785-3.325-25.623-5.629,2.955,5.523s-10.932,29.805-23.957,52.924c-9.652,17.133-16.614,11.734-19.574,7.79-1.825,20.436,1.844,47.155,3.293,88.263h10.419c8.792-38.1,3.907-74.728,7.327-84.493s26.861-63,26.861-63l9.769,1.952S347.259,378.918,351.333,390Z" transform="translate(22.053 119.853)" fill="#24243a"/>
        <path id="Trazado_115838" data-name="Trazado 115838" d="M322.908,383.362l12.849-2.19-.944-11.187-15.161,3.771Z" transform="translate(78.481 207.725)" fill="#606089"/>
        <path id="Trazado_115839" data-name="Trazado 115839" d="M286.941,381.9h12.477l2.247-11.03H286.231Z" transform="translate(23.5 209.185)" fill="#606089"/>
        <path id="Trazado_115840" data-name="Trazado 115840" d="M295.726,314.595a115.85,115.85,0,0,0,60.931,15.463c.606-8.983,1.053-15.1,1.053-15.1l-59.584-9.769C297.456,308.193,296.625,311.36,295.726,314.595Z" transform="translate(39.12 101.121)" fill="#24243a"/>
        <path id="Trazado_115841" data-name="Trazado 115841" d="M319.171,272.288c-3.756,2.2-11.615,18.291-18.934,32.123-8.65,16.344-15.342,27.9-9.967,31.749,8.729,6.261,20.005-7.5,30.5-33.487C330.392,278.866,319.171,272.288,319.171,272.288Z" transform="translate(26.975 47)" fill="#ffb476"/>
        <path id="Trazado_115842" data-name="Trazado 115842" d="M305.245,302.837q2.178-3.492,4.362-7.769l-15.448-9.888-2.277,4.29c-.169.32-.315.606-.481.92Z" transform="translate(32.004 68.21)" fill="#ed9558"/>
        <path id="Trazado_115843" data-name="Trazado 115843" d="M314.9,271.3c-7.012,4.071-24.02,32.744-24.02,32.744l19.685,18.81,3.2-4.6S326.2,277.573,314.9,271.3Z" transform="translate(31.14 45.381)" fill="#a04ba0"/>
        <path id="Trazado_115844" data-name="Trazado 115844" d="M305.873,326.922c-13.445-4.819-25.806-44.507-25.806-44.507l4.8-3.912s13.48,17.442,23.388,26.134S305.873,326.922,305.873,326.922Z" transform="translate(13.359 57.224)" fill="#ffb476"/>
        <path id="Trazado_115845" data-name="Trazado 115845" d="M310.036,325.471c-20.828-9.843-27.091-45.93-27.091-45.93l-1.809.3-1.069.87S291.2,316.4,303.831,324.162c.024.019.029.05.056.066a7.3,7.3,0,0,0,6.15,1.243Z" transform="translate(13.359 58.932)" fill="#ed9558"/>
        <g id="Grupo_83015" data-name="Grupo 83015" transform="translate(271.947 313.453)">
          <path id="Trazado_115846" data-name="Trazado 115846" d="M280.9,276.015c-3.129-.539-5.224-.6-5.33.64s1.984,1.41,5.277,1.735C283.851,278.684,280.9,276.015,280.9,276.015Z" transform="translate(-265.99 -260.922)" fill="#ffb476"/>
          <path id="Trazado_115847" data-name="Trazado 115847" d="M290.712,282.918c-1.754-2.545-11.036-9.054-13.474-6.674-1.688,2.87-.328,8.189.778,8.713,3.5,1.656,7.66,1.36,8.012,2.021A5.317,5.317,0,0,0,290.712,282.918Z" transform="translate(-264.548 -260.791)" fill="#ed9558"/>
          <g id="Grupo_83014" data-name="Grupo 83014">
            <path id="Trazado_115848" data-name="Trazado 115848" d="M274.731,272.137s-.722,4.185-.518,4.7,3.119,1.614,3.568,1.558,2.788-3.918,2.788-3.918Z" transform="translate(-268.278 -266.701)" fill="#2b2923"/>
            <path id="Trazado_115849" data-name="Trazado 115849" d="M287.864,274.579c.2.2,3.206,6.846,3.206,6.846,1.793,8.61,4.425,22.539,2.188,22.743-5.071.455-5.679-17.386-8.771-22.782-1.569-2.735-11.022-5.1-11.2-5.319s-1.547-3.65-1.309-4.166,4.137-1.817,4.137-1.817S287.66,274.372,287.864,274.579Z" transform="translate(-271.946 -270.082)" fill="#2b2923"/>
            <path id="Trazado_115850" data-name="Trazado 115850" d="M278.086,274.827c.005,1.889-.981,3.64-1.852,4.076l.159,1.206a5.791,5.791,0,0,1,3.314-.288C279.644,278.3,279.45,275,278.086,274.827Z" transform="translate(-264.893 -262.276)" fill="#423e36"/>
            <path id="Trazado_115851" data-name="Trazado 115851" d="M278.252,279.173c.2.511,3.121,1.611,3.568,1.558s2.788-3.917,2.788-3.917a8.75,8.75,0,0,1,4.486,4.74c1.177,3.013,3.862,18.106,3.3,22.306.28.1.537.333.841.3,2.238-.2-1.468-20.468-1.926-22.611s-2.412-6.02-3.468-6.975c-.212-.2-11.752-4.5-11.752-4.5s-3.9,1.3-4.137,1.817l6.816,2.576S278.049,278.663,278.252,279.173Z" transform="translate(-271.929 -270.082)" fill="#423e36"/>
            <path id="Trazado_115852" data-name="Trazado 115852" d="M276.725,273.652a.88.88,0,1,1-.878-.881A.878.878,0,0,1,276.725,273.652Z" transform="translate(-266.979 -265.658)" fill="#2b2923"/>
          </g>
          <path id="Trazado_115853" data-name="Trazado 115853" d="M280.684,277.165c.124-1.365-4.56-2.185-5.036-.793C274.968,278.352,280.57,278.408,280.684,277.165Z" transform="translate(-265.952 -260.921)" fill="#ffb476"/>
          <path id="Trazado_115854" data-name="Trazado 115854" d="M288.129,283.5c-1.733-2.912-3.909-5.528-5.02-6.216-1.19-.735-4.452-2.1-4.793-1.537-.677,1.415,1.74,2.3,3.058,3.452,1.357,1.19.96,4.883,2.886,6.171C287.608,287.613,288.129,283.5,288.129,283.5Z" transform="translate(-261.661 -260.979)" fill="#ffb476"/>
          <path id="Trazado_115855" data-name="Trazado 115855" d="M276.136,277.9c-.04-1.283,1.748-1.431,3.632-1.119,1.677.28,3.357.59,3.357,1.415C283.125,279.946,276.2,279.919,276.136,277.9Z" transform="translate(-265.055 -259.293)" fill="#ffb476"/>
          <path id="Trazado_115856" data-name="Trazado 115856" d="M276.194,278.949c-.23-1.262,1.828-1.423,3.891-1.434,1.833-.008,3.677.016,3.8.831C284.132,280.076,276.554,280.936,276.194,278.949Z" transform="translate(-264.988 -257.854)" fill="#ffb476"/>
          <path id="Trazado_115857" data-name="Trazado 115857" d="M276.531,279.8c-.259-1.127,1.539-1.36,3.351-1.455,1.611-.085,3.232-.143,3.372.587C283.559,280.481,276.938,281.577,276.531,279.8Z" transform="translate(-264.446 -256.569)" fill="#ffb476"/>
        </g>
        <path id="Trazado_115858" data-name="Trazado 115858" d="M301.319,302.2c.008-3.91,2.127-15.535,2.595-20.368l-8.293,16.9,5.674,5.42C301.3,303.489,301.316,302.87,301.319,302.2Z" transform="translate(38.948 62.694)" fill="#833a87"/>
        <path id="Trazado_115859" data-name="Trazado 115859" d="M302.913,263.473c-.235,5.105,2.881,9.435,6.959,9.676s7.578-3.708,7.814-8.814-2.883-9.438-6.962-9.676S303.148,258.368,302.913,263.473Z" transform="translate(50.923 17.982)" fill="#322f28"/>
        <path id="Trazado_115860" data-name="Trazado 115860" d="M320.257,278.381c-1.732,3.989-.791,16.072,1.479,31.554,2.682,18.3,4.285,34.389,10.813,33.323,11.967-1.952,11.136-21.685,4.251-48.853C330.491,269.517,320.257,278.381,320.257,278.381Z" transform="translate(78.006 54.5)" fill="#ffb476"/>
        <path id="Trazado_115861" data-name="Trazado 115861" d="M331.846,276.941c7.84,7.189,13.3,38.648,13.3,38.648l-21.492,8.792s-8.938-21.494-4.968-38.95S331.846,276.941,331.846,276.941Z" transform="translate(75.216 50.869)" fill="#a04ba0"/>
        <path id="Trazado_115862" data-name="Trazado 115862" d="M295.794,369.044s22.253,14.659,64.033,13.091c0,0,.365-28.779,1.569-52.71.984-19.563,6.433-44.719,6.433-44.719s-7.763-9.485-28.877-13.249c-24.84-4.431-32.149,2.124-32.149,2.124s-5.729,31.107-5.769,48.2C300.955,354.99,295.794,369.044,295.794,369.044Z" transform="translate(39.232 43.104)" fill="#a04ba0"/>
        <path id="Trazado_115863" data-name="Trazado 115863" d="M304.776,270.075c3.37,26.433,44.639,27.9,40.394,8.634a63.819,63.819,0,0,0-20.994-7.279A78.926,78.926,0,0,0,304.776,270.075Z" transform="translate(54.009 43.132)" fill="#833a87"/>
        <path id="Trazado_115864" data-name="Trazado 115864" d="M335.243,251.924c-8-4.081-13.316-.238-17.222,6.018,2.415,7.861-1,17.852-1,17.852l1.995.236h0a4.829,4.829,0,0,1,4.811-2.553,4.7,4.7,0,0,1,4.134,5.282,4.849,4.849,0,0,1-5.362,4.177,4.641,4.641,0,0,1-3.687-2.772c-.111.439-.2.8-.315,1.251a41.057,41.057,0,0,1-3.338,7.872C325.636,290.908,342.713,267.49,335.243,251.924Z" transform="translate(71.255 10.724)" fill="#ba5604"/>
        <path id="Trazado_115865" data-name="Trazado 115865" d="M305.862,269.938s1.473,8.814,12.707,10.768a21.36,21.36,0,0,0,18.183-5.161S326.219,269.308,305.862,269.938Z" transform="translate(55.795 43.06)" fill="#ed9558"/>
        <path id="Trazado_115866" data-name="Trazado 115866" d="M332.078,264.219s-5.5,17.164-2.473,25.877l-22.349-3.632s4.669-5.023,4.949-19.323S332.078,264.219,332.078,264.219Z" transform="translate(58.089 26.668)" fill="#ed9558"/>
        <path id="Trazado_115867" data-name="Trazado 115867" d="M328.479,289.838c-2.854-8.784,2.526-25.621,2.526-25.621s-19.593-11.374-19.873,2.926c-.167,8.525-1.873,13.72-3.224,16.532a30.132,30.132,0,0,0,10.226,13.673,21.512,21.512,0,0,0,15.252-5.409A32.639,32.639,0,0,0,328.479,289.838Z" transform="translate(59.161 26.667)" fill="#d87239"/>
        <path id="Trazado_115868" data-name="Trazado 115868" d="M308.4,276.164s-1.055-.114-.955-13.091c-4.214-7.388-1.822-12.974-.151-15.389,6.713-9.7,19.452,1.46,28.247,1.323,16.871-.265,20.86,11.5,17.535,15.974-4.243,2.8-18.476,2.775-18.476,2.775A192.175,192.175,0,0,0,308.4,276.164Z" transform="translate(54.525)" fill="#ba5604"/>
        <path id="Trazado_115869" data-name="Trazado 115869" d="M335.7,282.916c-3.872,11.17-4.55,10.737-16.146,16.022-2.484,1.132-8.98-.275-10.467-1.669s-1.18-3.132-2.582-7.541a30.248,30.248,0,0,1-1.476-12.374c.542-3.4,1.4-5.6,1.852-8,.862-4.618.9-8.909,2.248-14.109,1.33-5.126,8.247-7.089,16.011-5.235C342.914,254.258,341.178,261.7,335.7,282.916Z" transform="translate(54.154 9.223)" fill="#ffb476"/>
        <path id="Trazado_115870" data-name="Trazado 115870" d="M315.3,294.278c15.649-5.727,20.881-36.884,16.315-42.528,10.731,4.555,6.338,14.678,1.23,29.559-2.918,8.073-4.7,10.1-16.233,14.323-2.468.9-8.6-.934-9.922-2.383a2.958,2.958,0,0,1-.476-.73C308.366,293.808,313.175,295.053,315.3,294.278Z" transform="translate(56.368 13.212)" fill="#ed9558"/>
        <path id="Trazado_115871" data-name="Trazado 115871" d="M313.153,255.761a8.726,8.726,0,0,1,1.431,3.542c.852,8.115-6.081,7.282-6.076,9.21,0,2.812,5.5,3.045,5.5,3.045-.976,1.7-6.684-.061-6.621-2.9.074-3.343,6.84-1.611,6.512-9.194A22.062,22.062,0,0,0,313.153,255.761Z" transform="translate(58.302 19.811)" fill="#ed9558"/>
        <path id="Trazado_115872" data-name="Trazado 115872" d="M336.431,264.588l-4.161-1.434s-1.809-6.534-12.94-8.639c-10.189-1.931-12.824,4.73-12.824,4.73s1.786-17.823,21.3-11.289C331.4,249.162,338.487,259.517,336.431,264.588Z" transform="translate(56.857 4.601)" fill="#ba5604"/>
        <g id="Grupo_83016" data-name="Grupo 83016" transform="translate(389.677 284.167)">
          <path id="Trazado_115873" data-name="Trazado 115873" d="M316.495,263.22a4.7,4.7,0,0,0,4.137,5.282,4.849,4.849,0,0,0,5.362-4.177,4.7,4.7,0,0,0-4.134-5.282A4.85,4.85,0,0,0,316.495,263.22Z" transform="translate(-316.455 -259.01)" fill="#ed9558"/>
          <path id="Trazado_115874" data-name="Trazado 115874" d="M318.133,264.491a2.281,2.281,0,0,0,2.418-2.09,2.2,2.2,0,0,0-1.989-2.357,2.617,2.617,0,0,1,3.542,2.642,2.691,2.691,0,0,1-2.854,2.468,2.6,2.6,0,0,1-1.735-.831A2.1,2.1,0,0,0,318.133,264.491Z" transform="translate(-314.712 -257.594)" fill="#d1652f"/>
        </g>
        <path id="Trazado_115875" data-name="Trazado 115875" d="M322.6,261.958c-.712.725-2.431-1.656-5.481-3.457s-5.827-2-5.243-3.367c.682-1.608,3.888-1.2,6.933.614C322.748,258.1,323.423,261.122,322.6,261.958Z" transform="translate(65.562 17.124)" fill="#ba5604"/>
        <path id="Trazado_115876" data-name="Trazado 115876" d="M305.715,257.333c.312.934,1.8.09,4.38-.423s4.843-.13,4.785-1.608c-.066-1.733-2.328-2.161-4.909-1.629C306.63,254.357,305.355,256.259,305.715,257.333Z" transform="translate(55.456 16.022)" fill="#ba5604"/>
        <path id="Trazado_115877" data-name="Trazado 115877" d="M316.771,252.92l.011,0s2.322,0,5.341-.18l4.28,9.7-6.174,7.33-1.92,3.246-2.386-.458S319.4,259.416,316.771,252.92Z" transform="translate(72.345 14.836)" fill="#ba5604"/>
        <g id="Grupo_83019" data-name="Grupo 83019" transform="translate(361.728 276.374)">
          <g id="Grupo_83017" data-name="Grupo 83017" transform="translate(15.04 3.078)">
            <path id="Trazado_115878" data-name="Trazado 115878" d="M311.856,259.881c-2.09-4.782,8.113-2.288,8.237,1.119l-.59.312S312.071,260.511,311.856,259.881Z" transform="translate(-311.574 -257.228)" fill="#562824"/>
            <path id="Trazado_115879" data-name="Trazado 115879" d="M311.689,259.15c-.013-.918,1.119-1.595,3.121-1.317,1.764.172,4.729,1.772,4.5,2.587C319.1,261.182,312.625,263.991,311.689,259.15Z" transform="translate(-311.386 -256.336)" fill="#f7eee2"/>
            <path id="Trazado_115880" data-name="Trazado 115880" d="M314.932,257.758a2.288,2.288,0,0,0-.54-.1,3.91,3.91,0,0,0-.791.011,2.05,2.05,0,0,0-1.635,1.534,2.748,2.748,0,0,0,.439,2.153,3.1,3.1,0,0,0,1.579.762,5.581,5.581,0,0,0,2.248-.159,2.133,2.133,0,0,0,.484-.9A2.919,2.919,0,0,0,314.932,257.758Z" transform="translate(-311.04 -256.538)" fill="#562824"/>
          </g>
          <g id="Grupo_83018" data-name="Grupo 83018">
            <path id="Trazado_115881" data-name="Trazado 115881" d="M306.138,258.505c-1.838-4.208,7.065-2.4,7.242,1.085l-.606.336S306.342,259.1,306.138,258.505Z" transform="translate(-305.889 -256.064)" fill="#562824"/>
            <path id="Trazado_115882" data-name="Trazado 115882" d="M305.991,257.839c-.013-.865,1.73-1.428,2.931-1.243,2.219.227,3.992,1.611,3.777,2.381C312.5,259.693,306.872,262.41,305.991,257.839Z" transform="translate(-305.72 -255.247)" fill="#f7eee2"/>
            <path id="Trazado_115883" data-name="Trazado 115883" d="M309.373,256.738a5.356,5.356,0,0,0-.757-.182,3.7,3.7,0,0,0-1.614.185,1.884,1.884,0,0,0-.743,1.069,2.524,2.524,0,0,0,.492,2.087,2.753,2.753,0,0,0,1.4.619,4.86,4.86,0,0,0,2.082-.27,1.982,1.982,0,0,0,.362-.746A2.617,2.617,0,0,0,309.373,256.738Z" transform="translate(-305.38 -255.3)" fill="#562824"/>
          </g>
        </g>
        <path id="Trazado_115884" data-name="Trazado 115884" d="M311.855,244.745c7.893-2.711,23.044,7.2,20.748,12.49-1.05,2.423-7.544-3.486-16.876-2.484-7.266.778-7.816,4.669-9.065,2.854S304.777,247.176,311.855,244.745Z" transform="translate(55.826 0.929)" fill="#ce6f09"/>
        <path id="Trazado_115885" data-name="Trazado 115885" d="M317.044,249.722c3.235-1.264,7.845,7.967,4.51,9.321S314.33,250.782,317.044,249.722Z" transform="translate(72.691 9.68)" fill="#ce6f09"/>
        <g id="Grupo_83020" data-name="Grupo 83020" transform="translate(363.184 293.572)">
          <path id="Trazado_115886" data-name="Trazado 115886" d="M306.586,262.677l13.5,2.378s-3.373,5.576-7.925,4.775S306.586,262.677,306.586,262.677Z" transform="translate(-306.197 -262.383)" fill="#562824"/>
          <path id="Trazado_115887" data-name="Trazado 115887" d="M307.253,263l10.639,1.9s-3.182,1.106-10.083-.328Z" transform="translate(-305.1 -261.845)" fill="#efe5d8"/>
          <path id="Trazado_115888" data-name="Trazado 115888" d="M315.878,265.169a6.815,6.815,0,0,1-5.692,2.108,5.19,5.19,0,0,1-2.4-1.119A6.649,6.649,0,0,1,315.878,265.169Z" transform="translate(-304.218 -259.831)" fill="#a52131"/>
          <path id="Trazado_115889" data-name="Trazado 115889" d="M311.905,263.5c-.167.071-.4.325-.365.4s.376.085.545.013.212-.2.161-.317A.235.235,0,0,0,311.905,263.5Z" transform="translate(-298.052 -261.086)" fill="#562824"/>
          <path id="Trazado_115890" data-name="Trazado 115890" d="M306.566,263c.145.111.481.188.532.119s-.111-.368-.256-.479a.241.241,0,0,0-.357.013A.237.237,0,0,0,306.566,263Z" transform="translate(-306.439 -262.566)" fill="#562824"/>
        </g>
        <path id="Trazado_115891" data-name="Trazado 115891" d="M321.872,304.4l17.461-5.891q-.464-4.507-1.4-9.631l-17.37,6.74C321,298.69,321.43,301.624,321.872,304.4Z" transform="translate(79.971 74.286)" fill="#ed9558"/>
        <path id="Trazado_115892" data-name="Trazado 115892" d="M381.126,314.158s-3.748-28.53-13.3-38.648c5.4,11.34,9.668,33.273.876,34.982-6.219,1.212-15-14.342-15-14.342s-1.6,27.311-6.853,39.238l-20.19-.593-12.628-7.533-13.67,4.158c-1.41,19.735-4.573,28.427-4.573,28.427s22.253,14.659,64.033,13.091c0,0,.346-27.173,1.471-50.667Z" transform="translate(39.232 52.3)" fill="#833a87"/>
        <g id="Grupo_83023" data-name="Grupo 83023" transform="translate(336.175 375.766)">
          <path id="Trazado_115893" data-name="Trazado 115893" d="M355.892,310.016c-6.388,8.509-43.341-5.153-47.231-5.647l-.347-5.917s14.741-1.227,37.283-2.963C358.3,294.512,355.892,310.016,355.892,310.016Z" transform="translate(-276.345 -290.671)" fill="#ffb476"/>
          <g id="Grupo_83022" data-name="Grupo 83022">
            <path id="Trazado_115894" data-name="Trazado 115894" d="M306.77,297.65c-.728-1.161-4.949,1.021-4.489,2.42C302.939,302.057,307.433,298.708,306.77,297.65Z" transform="translate(-286.328 -287.583)" fill="#ffb476"/>
            <path id="Trazado_115895" data-name="Trazado 115895" d="M304.186,303c-.947-.865.592-2.24,2.227-3.5,1.455-1.116,2.936-2.214,3.526-1.637C311.188,299.1,305.675,304.37,304.186,303Z" transform="translate(-283.613 -286.941)" fill="#ffb476"/>
            <path id="Trazado_115896" data-name="Trazado 115896" d="M304.716,301.764c-.537-1.024,1.143-1.709,2.87-2.264,1.534-.492,3.089-.96,3.412-.291C311.686,300.629,305.565,303.378,304.716,301.764Z" transform="translate(-282.431 -285.025)" fill="#ffb476"/>
            <path id="Trazado_115897" data-name="Trazado 115897" d="M316.7,297.843c-3.142-1.267-6.462-2.031-7.761-1.907-1.394.135-4.817,1.021-4.745,1.68.317,1.537,2.78.775,4.523.9,1.8.124,3.719,3.3,6.034,3.161C318.779,301.43,316.7,297.843,316.7,297.843Z" transform="translate(-283.117 -289.884)" fill="#ffb476"/>
            <g id="Grupo_83021" data-name="Grupo 83021">
              <path id="Trazado_115898" data-name="Trazado 115898" d="M298.992,297.128s1.957,3.772,2.428,4.055,3.46-.606,3.785-.921-.156-4.806-.156-4.806Z" transform="translate(-291.681 -290.652)" fill="#2b2923"/>
              <path id="Trazado_115899" data-name="Trazado 115899" d="M310.5,293.64c.286.037,6.7,3.507,6.7,3.507,6.642,5.769,17.167,15.262,15.508,16.775-3.759,3.433-15.046-10.4-20.775-12.821-2.9-1.227-11.858,2.613-12.136,2.547s-3.439-1.965-3.563-2.521,2.193-3.949,2.193-3.949S310.215,293.6,310.5,293.64Z" transform="translate(-296.228 -293.64)" fill="#2b2923"/>
              <path id="Trazado_115900" data-name="Trazado 115900" d="M302.648,296.761c1.148,1.5,1.42,3.489.992,4.365l.86.862a5.819,5.819,0,0,1,2.463-2.238C305.989,298.578,303.841,296.076,302.648,296.761Z" transform="translate(-285.667 -288.698)" fill="#423e36"/>
              <path id="Trazado_115901" data-name="Trazado 115901" d="M305.647,303.107c.471.283,3.46-.608,3.785-.923s-.156-4.8-.156-4.8a8.766,8.766,0,0,1,6.444,1.055c2.762,1.685,14.035,12.072,16.135,15.754.283-.093.627-.061.852-.267,1.658-1.513-13.559-15.4-15.223-16.828s-5.565-3.333-6.983-3.455c-.286-.026-12.075,3.536-12.075,3.536s-2.317,3.4-2.193,3.952l6.986-2.076S305.176,302.824,305.647,303.107Z" transform="translate(-296.228 -293.64)" fill="#423e36"/>
              <path id="Trazado_115902" data-name="Trazado 115902" d="M301.55,296.319a.88.88,0,1,1-1.233-.167A.88.88,0,0,1,301.55,296.319Z" transform="translate(-290.07 -289.801)" fill="#2b2923"/>
            </g>
            <path id="Trazado_115903" data-name="Trazado 115903" d="M306.234,297.059c-2.817,1.465-4.521,2.682-3.854,3.738s2.434-.079,5.251-1.817C310.2,297.4,306.234,297.059,306.234,297.059Z" transform="translate(-286.345 -288.015)" fill="#ffb476"/>
            <path id="Trazado_115904" data-name="Trazado 115904" d="M318.328,296.994c-2.939-.963-13.387-.979-15.117,2.486.394,3.306,5.4,6.748,6.6,6.494,3.785-.8,6.563-3.558,7.245-3.243A4.717,4.717,0,0,0,318.328,296.994Z" transform="translate(-284.741 -289.034)" fill="#ffb476"/>
            <path id="Trazado_115905" data-name="Trazado 115905" d="M303.43,301.651c-.809-1,.526-2.2,2.214-3.089,1.5-.791,3.029-1.561,3.529-.9C310.233,299.051,304.7,303.219,303.43,301.651Z" transform="translate(-284.78 -287.438)" fill="#ffb476"/>
          </g>
        </g>
        <path id="Trazado_115906" data-name="Trazado 115906" d="M339.961,303.921c-13.625-2.373-25.518-5.983-31.517-5,9.073,2.285,32.5,10.615,42.854,7.983,2.656-.672,4.386-1.4,6.37-5.542C355.334,302.587,350.951,305.833,339.961,303.921Z" transform="translate(60.043 90.542)" fill="#ed9558"/>
        <g id="Grupo_83026" data-name="Grupo 83026" transform="translate(346.303 247.954)">
          <rect id="Rectángulo_33988" data-name="Rectángulo 33988" width="12.21" height="5.617" transform="translate(39.77 28.409) rotate(13.748)" fill="#2b2923"/>
          <g id="Grupo_83024" data-name="Grupo 83024" transform="translate(43.452 28.548)">
            <path id="Trazado_115907" data-name="Trazado 115907" d="M333.727,269.627c-2.23,5.594-7.687,8.806-12.186,7.174s-6.338-7.494-4.108-13.088,7.689-8.808,12.189-7.173S335.959,264.033,333.727,269.627Z" transform="translate(-316.485 -256.113)" fill="#2b2923"/>
            <path id="Trazado_115908" data-name="Trazado 115908" d="M332.284,268.294c-1.9,4.764-6.544,7.5-10.374,6.108s-5.4-6.38-3.5-11.141,6.544-7.5,10.374-6.105S334.183,263.533,332.284,268.294Z" transform="translate(-314.64 -254.994)" fill="#322f28"/>
            <path id="Trazado_115909" data-name="Trazado 115909" d="M325.34,263.979c-2.069,2.481-4.893,3.65-6.309,2.613s-.886-3.888,1.182-6.369,4.894-3.65,6.309-2.611S327.408,261.5,325.34,263.979Z" transform="translate(-313.6 -254.271)" fill="#322f28" opacity="0.4" style="mix-blend-mode: screen;isolation: isolate"/>
            <path id="Trazado_115910" data-name="Trazado 115910" d="M320.674,262.843c.13.9-.275,1.69-.9,1.754s-1.238-.614-1.365-1.516.275-1.688.9-1.754S320.547,261.941,320.674,262.843Z" transform="translate(-313.362 -247.541)" fill="#322f28" opacity="0.4" style="mix-blend-mode: screen;isolation: isolate"/>
          </g>
          <g id="Grupo_83025" data-name="Grupo 83025" transform="translate(0 14.486)">
            <path id="Trazado_115911" data-name="Trazado 115911" d="M326.378,253.065l-.217,1.341L313.6,252.171a7.163,7.163,0,0,0-8.226,6.1l-.764,4.724a7.444,7.444,0,0,0,5.854,8.6l12.564,2.232-.22,1.365c10.255,1.106,12.866-2.685,13.855-8.822C337.715,259.837,336.474,255.25,326.378,253.065Z" transform="translate(-292.74 -248.71)" fill="#2b2923"/>
            <path id="Trazado_115912" data-name="Trazado 115912" d="M328.859,277.141l-21.96-3.9a8.554,8.554,0,0,1-6.727-9.885l.876-5.428a8.231,8.231,0,0,1,9.456-7l21.96,3.9a8.552,8.552,0,0,1,6.727,9.882l-.878,5.428A8.232,8.232,0,0,1,328.859,277.141Z" transform="translate(-300.057 -250.796)" fill="#35322b"/>
            <path id="Trazado_115913" data-name="Trazado 115913" d="M315.06,252.406l-.791-.14a8.578,8.578,0,0,1,6.43,9.808l-.881,5.462a8.26,8.26,0,0,1-9.181,7.041l.817.146a8.231,8.231,0,0,0,9.454-7.007l.878-5.428A8.552,8.552,0,0,0,315.06,252.406Z" transform="translate(-282.652 -248.378)" fill="#49463e"/>
            <path id="Trazado_115914" data-name="Trazado 115914" d="M325.582,273.543,306.754,270.2a7.2,7.2,0,0,1-5.809-8.218l.725-4.494a6.925,6.925,0,0,1,8.062-5.756l18.828,3.341a7.2,7.2,0,0,1,5.809,8.221l-.722,4.491A6.931,6.931,0,0,1,325.582,273.543Z" transform="translate(-298.748 -249.439)" fill="#35322b" opacity="0.2" style="mix-blend-mode: screen;isolation: isolate"/>
            <path id="Trazado_115915" data-name="Trazado 115915" d="M311.591,257.483l-4.708-.836a1.055,1.055,0,0,1-.794-1.013l-.082-3.433c-.016-.741.426-1.3.995-1.2l6.253,1.111c.566.1.809.783.561,1.476L312.66,256.8A1.011,1.011,0,0,1,311.591,257.483Z" transform="translate(-290.27 -250.477)" fill="#49463e"/>
          </g>
          <path id="Trazado_115916" data-name="Trazado 115916" d="M328.1,274.639s4.793-23.267-13.686-29.319l7.488.712s15.318,4.118,11.123,28.263Z" transform="translate(-276.437 -245.32)" fill="#2b2923"/>
        </g>
      </g>
    </g>
  </g>
</svg>
